<?xml version="1.0" encoding="utf-8"?>
<!-- Generator: Adobe Illustrator 19.1.0, SVG Export Plug-In . SVG Version: 6.00 Build 0)  -->
<svg version="1.0" id="Layer_1" xmlns="http://www.w3.org/2000/svg" xmlns:xlink="http://www.w3.org/1999/xlink" x="0px" y="0px"
	 width="177px" height="28px" viewBox="1 0 177 28" enable-background="new 0 0 189.7 28" xml:space="preserve">
<path fill="#FFFFFF" d="M32.6,1.3h5.1v25.4h-5.1V1.3z M53.3,24.2L53.3,24.2c-0.8,1-1.6,1.8-2.6,2.2c-1,0.4-2,0.7-3.1,0.7
	c-1.2,0-2.3-0.3-3.3-0.8c-1-0.5-1.8-1.2-2.5-2c-0.7-0.8-1.3-1.8-1.7-2.9c-0.4-1.1-0.6-2.3-0.6-3.5c0-1.2,0.2-2.4,0.6-3.5
	c0.4-1.1,0.9-2.1,1.6-2.9c0.7-0.8,1.5-1.5,2.5-2c1-0.5,2.1-0.7,3.4-0.7c1.1,0,2.1,0.2,3,0.6c0.9,0.4,1.7,1.2,2.5,2.2h0.1V1.3h4.9
	v25.4h-4.6V24.2z M53.2,18c0-0.6-0.1-1.3-0.3-1.9c-0.2-0.6-0.5-1.1-0.8-1.6c-0.4-0.5-0.8-0.8-1.4-1.1c-0.6-0.3-1.2-0.4-2-0.4
	c-0.7,0-1.3,0.1-1.8,0.4c-0.5,0.3-1,0.7-1.3,1.1c-0.4,0.5-0.6,1-0.8,1.6c-0.2,0.6-0.3,1.3-0.3,1.9c0,0.7,0.1,1.3,0.3,1.9
	c0.2,0.6,0.5,1.2,0.8,1.6c0.4,0.5,0.8,0.8,1.4,1.1c0.5,0.3,1.2,0.4,1.9,0.4c0.7,0,1.3-0.1,1.8-0.4c0.5-0.3,1-0.6,1.3-1.1
	c0.4-0.5,0.7-1,0.8-1.7C53.1,19.4,53.2,18.8,53.2,18z M64.5,19.4c0,0.5,0.2,1,0.4,1.5c0.2,0.5,0.4,0.9,0.8,1.3
	c0.3,0.4,0.7,0.7,1.2,0.9c0.5,0.2,1.1,0.4,1.7,0.4c0.7,0,1.4-0.2,2-0.5c0.6-0.3,1.1-0.9,1.4-1.5l4.7,0.4c-0.6,1.8-1.6,3.1-3.1,4
	c-1.5,0.9-3.3,1.4-5.3,1.4c-1.3,0-2.5-0.2-3.6-0.6c-1.1-0.4-2-1-2.8-1.8c-0.8-0.8-1.4-1.8-1.8-2.9c-0.4-1.1-0.7-2.4-0.7-3.8
	c0-1.4,0.2-2.7,0.7-3.8c0.4-1.1,1-2.1,1.8-2.9c0.8-0.8,1.7-1.4,2.8-1.8c1.1-0.4,2.3-0.6,3.6-0.6c1.3,0,2.5,0.2,3.6,0.6
	c1.1,0.4,2,1,2.8,1.8c0.8,0.8,1.4,1.8,1.8,2.9c0.4,1.1,0.7,2.4,0.7,3.8v1.3H64.5z M72.3,16.3c0-0.4-0.2-0.9-0.3-1.3
	c-0.2-0.4-0.4-0.8-0.7-1.2c-0.3-0.4-0.7-0.7-1.1-0.9c-0.4-0.2-1-0.3-1.6-0.3c-0.6,0-1.2,0.1-1.7,0.3c-0.5,0.2-0.9,0.5-1.2,0.8
	c-0.3,0.3-0.6,0.7-0.8,1.2c-0.2,0.4-0.3,0.9-0.4,1.4H72.3z M90.4,24.4L90.4,24.4c-0.9,1.1-1.8,1.8-2.9,2.2c-1.1,0.4-2.1,0.6-3.1,0.6
	c-0.7,0-1.4-0.1-2.1-0.3c-0.7-0.2-1.4-0.5-2-0.9c-0.6-0.4-1.1-1-1.5-1.6c-0.4-0.7-0.6-1.5-0.6-2.5c0-0.5,0.1-1,0.2-1.6
	c0.1-0.6,0.4-1.1,0.9-1.6c0.5-0.5,1.2-1,2.2-1.4c1-0.4,2.3-0.6,4-0.8l4.5-0.3v-0.8c0-1-0.3-1.8-0.9-2.3c-0.6-0.5-1.4-0.8-2.5-0.8
	c-1,0-1.8,0.2-2.4,0.7c-0.6,0.5-0.9,1.1-0.9,1.9h-4.7c0-0.7,0.2-1.4,0.5-2.1c0.3-0.7,0.7-1.4,1.4-2c0.6-0.6,1.4-1.1,2.5-1.5
	c1-0.4,2.3-0.6,3.8-0.6c1.1,0,2.1,0.1,3,0.3c0.9,0.2,1.8,0.5,2.5,1c0.7,0.5,1.3,1,1.7,1.7c0.4,0.7,0.6,1.6,0.6,2.5v10.1
	c0,0.5,0,0.8,0.1,1.2c0,0.3,0.1,0.7,0.2,1h-4.7V24.4z M90.2,19.1l-4.1,0.4c-1.1,0.1-1.9,0.3-2.3,0.7c-0.4,0.3-0.6,0.8-0.6,1.5
	c0,0.4,0.1,0.7,0.3,1c0.2,0.3,0.4,0.5,0.7,0.6c0.3,0.2,0.6,0.3,1,0.3c0.4,0.1,0.8,0.1,1.2,0.1c0.4,0,0.8-0.1,1.3-0.2
	c0.5-0.1,0.9-0.3,1.3-0.5c0.4-0.2,0.7-0.5,1-0.9c0.3-0.4,0.4-0.8,0.4-1.3V19.1z M99.9,1.3h9c1.4,0,2.5,0.2,3.6,0.5
	c1,0.3,1.9,0.8,2.6,1.4c0.7,0.6,1.2,1.3,1.6,2.2c0.3,0.8,0.5,1.8,0.5,2.8c0,0.7-0.1,1.3-0.3,1.9c-0.2,0.6-0.4,1-0.7,1.5
	c-0.3,0.4-0.7,0.8-1.1,1.1c-0.4,0.3-0.8,0.6-1.3,0.8v0.1c0.6,0.1,1.1,0.4,1.6,0.7c0.5,0.3,1,0.7,1.4,1.2c0.4,0.5,0.7,1.1,0.9,1.7
	c0.2,0.7,0.3,1.4,0.3,2.2c0,1.2-0.2,2.2-0.6,3.1c-0.4,0.9-1,1.7-1.8,2.3c-0.8,0.6-1.7,1.1-2.8,1.5c-1.1,0.3-2.3,0.5-3.6,0.5h-9.2
	V1.3z M108,11.7c1.2,0,2.2-0.3,2.9-0.8c0.7-0.5,1.1-1.3,1.1-2.3c0-1.1-0.3-1.8-1-2.3c-0.7-0.5-1.5-0.7-2.6-0.7h-3.5v6.1H108z
	 M108.3,22.4c1.6,0,2.7-0.3,3.4-0.9c0.7-0.6,1-1.4,1-2.3c0-0.4-0.1-0.8-0.2-1.2c-0.1-0.4-0.4-0.7-0.7-1.1c-0.3-0.3-0.7-0.6-1.2-0.8
	c-0.5-0.2-1.1-0.3-1.9-0.3h-3.8v6.5H108.3z M130.7,24.4L130.7,24.4c-0.9,1.1-1.8,1.8-2.9,2.2c-1.1,0.4-2.1,0.6-3.1,0.6
	c-0.7,0-1.4-0.1-2.1-0.3c-0.7-0.2-1.4-0.5-2-0.9c-0.6-0.4-1.1-1-1.5-1.6c-0.4-0.7-0.6-1.5-0.6-2.5c0-0.5,0.1-1,0.2-1.6
	c0.1-0.6,0.4-1.1,0.9-1.6c0.5-0.5,1.2-1,2.2-1.4c1-0.4,2.3-0.6,4-0.8l4.5-0.3v-0.8c0-1-0.3-1.8-0.9-2.3c-0.6-0.5-1.4-0.8-2.5-0.8
	c-1,0-1.8,0.2-2.4,0.7c-0.6,0.5-0.9,1.1-0.9,1.9h-4.7c0-0.7,0.2-1.4,0.5-2.1c0.3-0.7,0.7-1.4,1.4-2c0.6-0.6,1.4-1.1,2.5-1.5
	c1-0.4,2.3-0.6,3.8-0.6c1.1,0,2.1,0.1,3,0.3c0.9,0.2,1.8,0.5,2.5,1c0.7,0.5,1.3,1,1.7,1.7c0.4,0.7,0.6,1.6,0.6,2.5v10.1
	c0,0.5,0,0.8,0.1,1.2c0,0.3,0.1,0.7,0.2,1h-4.7V24.4z M130.5,19.1l-4.1,0.4c-1.1,0.1-1.9,0.3-2.3,0.7c-0.4,0.3-0.6,0.8-0.6,1.5
	c0,0.4,0.1,0.7,0.3,1c0.2,0.3,0.4,0.5,0.7,0.6c0.3,0.2,0.6,0.3,1,0.3c0.4,0.1,0.8,0.1,1.2,0.1c0.4,0,0.8-0.1,1.3-0.2
	c0.5-0.1,0.9-0.3,1.3-0.5c0.4-0.2,0.7-0.5,1-0.9c0.3-0.4,0.4-0.8,0.4-1.3V19.1z M148.3,16.1c0-0.6-0.1-1.2-0.3-1.6
	c-0.2-0.4-0.4-0.8-0.7-1c-0.3-0.3-0.6-0.4-1-0.6c-0.4-0.1-0.7-0.2-1.1-0.2c-1,0-1.8,0.4-2.3,1.1c-0.6,0.8-0.8,1.7-0.8,2.9v9.9h-4.9
	V9.3h4.6v2.3h0.1c0.7-1.1,1.5-1.8,2.4-2.2c0.9-0.4,1.8-0.6,2.8-0.6c1,0,1.9,0.2,2.7,0.5c0.8,0.3,1.4,0.7,1.9,1.3
	c0.5,0.6,0.9,1.2,1.1,1.9c0.2,0.7,0.4,1.5,0.4,2.3v11.8h-4.9V16.1z M159.9,18.2L159.9,18.2l-0.1,8.5H155V1.3h4.9v15.6l0.1,0l5.2-7.6
	l5.6,0l-5.8,7.8l6,9.5h-6L159.9,18.2z M12.9,6.8c0,3.3-2.7,6-6,6c-3.3,0-6-2.7-6-6c0-3.3,2.7-5.9,6-5.9C10.2,0.8,12.9,3.5,12.9,6.8
	 M27.4,6.8c0-3.3-2.7-5.9-5.9-5.9c-3.3,0-5.9,2.7-5.9,5.9c0,3.3,2.7,6,5.9,6C24.7,12.7,27.4,10.1,27.4,6.8 M12.9,21.2
	c0-3.3-2.7-5.9-6-5.9c-3.3,0-6,2.7-6,5.9c0,3.3,2.7,5.9,6,5.9C10.2,27.2,12.9,24.5,12.9,21.2 M27.4,21.2c0-3.3-2.7-5.9-5.9-5.9
	c-3.3,0-5.9,2.7-5.9,5.9c0,3.3,2.7,5.9,5.9,5.9C24.7,27.2,27.4,24.5,27.4,21.2 M167.9,17.9c0-0.3,0.1-0.6,0.2-0.9
	c0.1-0.3,0.3-0.6,0.5-0.8c0.2-0.2,0.5-0.4,0.8-0.5c0.3-0.1,0.6-0.2,0.9-0.2c0.3,0,0.7,0.1,0.9,0.2c0.3,0.1,0.5,0.3,0.8,0.5
	c0.2,0.2,0.4,0.5,0.5,0.8c0.1,0.3,0.2,0.6,0.2,0.9c0,0.3-0.1,0.6-0.2,0.9c-0.1,0.3-0.3,0.6-0.5,0.8c-0.2,0.2-0.5,0.4-0.8,0.5
	c-0.3,0.1-0.6,0.2-0.9,0.2c-0.3,0-0.6-0.1-0.9-0.2c-0.3-0.1-0.5-0.3-0.8-0.5c-0.2-0.2-0.4-0.5-0.5-0.8
	C168,18.6,167.9,18.3,167.9,17.9z M172.4,17.9c0-0.3-0.1-0.6-0.2-0.8c-0.1-0.3-0.2-0.5-0.4-0.7c-0.2-0.2-0.4-0.3-0.6-0.4
	c-0.3-0.1-0.5-0.2-0.8-0.2c-0.3,0-0.6,0.1-0.8,0.2c-0.2,0.1-0.5,0.3-0.6,0.4c-0.2,0.2-0.3,0.4-0.4,0.7c-0.1,0.3-0.2,0.5-0.2,0.8
	c0,0.3,0.1,0.6,0.2,0.8c0.1,0.3,0.2,0.5,0.4,0.7c0.2,0.2,0.4,0.3,0.6,0.4c0.2,0.1,0.5,0.2,0.8,0.2c0.3,0,0.6-0.1,0.8-0.2
	c0.2-0.1,0.5-0.2,0.6-0.4c0.2-0.2,0.3-0.4,0.4-0.7C172.3,18.5,172.4,18.2,172.4,17.9z M170.3,18.1h-0.6v1.2h-0.4v-2.8h1.1
	c0.3,0,0.6,0.1,0.7,0.2c0.2,0.1,0.2,0.3,0.2,0.6c0,0.1,0,0.2-0.1,0.3c0,0.1-0.1,0.2-0.2,0.2c-0.1,0.1-0.1,0.1-0.2,0.2
	c-0.1,0-0.2,0.1-0.3,0.1l0.8,1.2h-0.4L170.3,18.1z M170.4,17.8c0.1,0,0.2,0,0.3,0c0.1,0,0.2,0,0.2-0.1c0.1,0,0.1-0.1,0.1-0.1
	c0-0.1,0.1-0.1,0.1-0.2c0-0.1,0-0.2,0-0.3c0-0.1-0.1-0.1-0.1-0.2c-0.1,0-0.1-0.1-0.2-0.1c-0.1,0-0.2,0-0.3,0h-0.7v1H170.4z"/>
</svg>
